<?xml version="1.0" encoding="utf-8"?>
<!-- Generator: $$$/GeneralStr/196=Adobe Illustrator 27.6.0, SVG Export Plug-In . SVG Version: 6.00 Build 0)  -->
<svg version="1.1" id="Capa_1" xmlns="http://www.w3.org/2000/svg" xmlns:xlink="http://www.w3.org/1999/xlink" x="0px" y="0px"
	 viewBox="0 0 416.9 110.4" style="enable-background:new 0 0 416.9 110.4;" xml:space="preserve">
<style type="text/css">
	.st0{fill:#FF0000;}
</style>
<g>
	<g id="logo_x5F_flat_x5F_h_x5F_red_x5F_rgb">
		<path class="st0" d="M316.9,21.7v26.7h11.9V21.7h13.7v67.1h-13.7V60.7h-11.9v28.1h-13.7V21.7H316.9L316.9,21.7z M197.2,21.7v67.1
			h12.6V46.2l7.4,42.6h8.4l7.5-42.6v42.6h12.6V21.7h-18.7L221.4,54l-5.5-32.2L197.2,21.7L197.2,21.7z M104.6,21.7l14.7,45.1v22h14.6
			v-22l14.7-45.1h-13.7l-8.4,30l-8.4-30C118.2,21.7,104.6,21.7,104.6,21.7z M189.6,88.8h-13.7l-2.3-16h-10.3l-2.3,16h-13.6
			l11.9-67.1h18.2L189.6,88.8L189.6,88.8z M165.1,60.7h6.8l-3.4-23.8L165.1,60.7z M295.4,88.8h-13.7l-2.3-16h-10.3l-2.3,16h-13.6
			l11.9-67.1h18.2L295.4,88.8z M271,60.7h6.8l-3.4-23.8L271,60.7L271,60.7z M392.3,88.8h-13.7l-2.3-16h-10.3l-2.3,16h-13.6
			l11.9-67.1h18.2L392.3,88.8L392.3,88.8z M367.8,60.7h6.8l-3.4-23.8L367.8,60.7z M58.3,15.5c-21.9,0-39.7,17.8-39.7,39.7
			s17.8,39.7,39.7,39.7s39.7-17.8,39.7-39.7S80.2,15.5,58.3,15.5z M91.2,74.2c-0.4,0.7-1.2,1.1-2,0.9l-3.4-0.8
			c-6,8.6-16.1,14.3-27.4,14.3s-21.4-5.7-27.4-14.3l-3.5,0.8c-0.8,0.2-1.6-0.2-2-0.9c-0.4-0.7-0.3-1.6,0.2-2.2l2.4-2.6
			c-2-4.3-3.2-9.1-3.2-14.2c0-17.5,13.4-31.9,30.6-33.3l1.1-3.4c0.2-0.8,1-1.3,1.8-1.3s1.5,0.5,1.8,1.3l1.1,3.4
			c17.1,1.5,30.6,15.8,30.6,33.3c0,5.1-1.1,9.9-3.2,14.2l2.4,2.6C91.5,72.6,91.6,73.4,91.2,74.2L91.2,74.2z M89.4,73.6
			c0.2,0,0.3,0,0.4-0.2s0.1-0.3-0.1-0.5l-7.1-7.7l-1.6,0.3c-0.8,0.1-1.6,0-2.3-0.4c-0.8-0.5-1.3-1.2-1.6-2l0,0l-0.6-2.3l0,0
			c-0.4-1.5-1.4-2.9-2.9-3.7l-3.3-1.9l14.7-8.5l-1.9-3.3L66.8,53l-2.4-1.4v-2.7L81,39.3L79.1,36l-14.7,8.5v-3.8
			c0-1.7-0.7-3.2-1.8-4.3l-1.7-1.7l0,0c-0.6-0.6-1-1.4-1-2.4c0-0.8,0.3-1.6,0.8-2.2l1-1.2l-3.1-10c-0.1-0.2-0.2-0.3-0.4-0.3
			s-0.3,0.1-0.4,0.3l-3.1,10l1,1.2c0.5,0.6,0.8,1.3,0.8,2.2c0,0.9-0.4,1.8-1,2.4l-1.7,1.7c-1.1,1.1-1.8,2.6-1.8,4.3v3.8L37.4,36
			l-1.9,3.3l16.6,9.6v2.7L49.7,53l-16.6-9.6l-1.9,3.3L46,55.2l-3.3,1.9c-1.5,0.8-2.4,2.2-2.9,3.7l0,0l-0.6,2.3
			c-0.2,0.8-0.8,1.6-1.6,2c-0.7,0.4-1.5,0.5-2.3,0.4l-1.6-0.3l-7,7.7c-0.1,0.1-0.1,0.3-0.1,0.5c0.1,0.2,0.3,0.2,0.4,0.2l10.2-2.3
			l0.5-1.5c0.3-0.7,0.8-1.4,1.5-1.8c0.8-0.5,1.7-0.6,2.5-0.3l0,0l2.3,0.6c1.5,0.4,3.2,0.2,4.6-0.6l3.3-1.9v17h3.8V63.6l2.4-1.4
			l2.4,1.4v19.1h3.8v-17l3.3,1.9c1.5,0.8,3.1,1,4.6,0.6l2.3-0.6l0,0c0.8-0.2,1.7-0.1,2.5,0.3c0.7,0.4,1.2,1,1.5,1.8l0.5,1.5
			L89.4,73.6L89.4,73.6z M58.3,57.9l-2.4-1.4v-2.7l2.4-1.4l2.4,1.4v2.7L58.3,57.9z M55.9,40.7c0-1.3,1.1-2.4,2.4-2.4
			s2.4,1.1,2.4,2.4v6l-2.4,1.4l-2.4-1.4C55.9,46.7,55.9,40.7,55.9,40.7z M46.9,64.5c-1.1,0.7-2.6,0.3-3.3-0.9s-0.3-2.6,0.9-3.3
			l5.2-3l2.4,1.4v2.7L46.9,64.5L46.9,64.5z M72.9,63.6c-0.7,1.1-2.1,1.5-3.3,0.9l0,0l-5.2-3v-2.7l2.4-1.4l5.2,3l0,0
			C73.1,61,73.5,62.5,72.9,63.6L72.9,63.6z"/>
	</g>
</g>
</svg>
